<svg width="42" height="45" viewBox="0 0 42 45" fill="none" xmlns="http://www.w3.org/2000/svg">
<path d="M3.05835 43.1498C3.05835 45.1022 0.0546875 45.1022 0.0546875 43.1498C0.0546875 33.8384 6.2122 25.8787 14.7726 23.4758C11.1682 21.3732 8.76531 17.6186 8.76531 13.2633V12.3622C8.76531 5.90436 14.0217 0.647949 20.4796 0.647949C26.9375 0.647949 32.1939 5.90436 32.1939 12.3622V13.2633C32.1939 17.6186 29.791 21.3732 26.3367 23.4758C34.8972 25.8787 41.0547 33.8384 41.0547 43.1498C41.0547 45.1022 38.051 45.1022 38.051 43.1498C38.051 33.3879 30.2415 25.5784 20.4796 25.5784C10.8679 25.5784 3.05835 33.3879 3.05835 43.1498ZM20.4796 3.65161C15.8239 3.65161 11.769 7.55637 11.769 12.3622V13.2633C11.769 18.0692 15.8239 21.974 20.4796 21.974C25.2855 21.974 29.1902 18.0692 29.1902 13.2633V12.3622C29.1902 7.55637 25.2855 3.65161 20.4796 3.65161Z" fill="#868E96"/>
</svg>
