<svg width="51" height="39" viewBox="0 0 51 39" fill="none" xmlns="http://www.w3.org/2000/svg">
<path d="M7.73465 0.257568H40.4092C44.4431 0.257568 47.6702 3.48469 47.6702 7.51858V15.5864H50.2923V28.4948H47.6702V30.9152C47.6702 34.9491 44.4431 38.1762 40.4092 38.1762H7.73465C3.70075 38.1762 0.473633 34.9491 0.473633 30.9152V7.51858C0.473633 3.48469 3.70075 0.257568 7.73465 0.257568ZM44.8465 15.5864V7.51858C44.8465 5.09824 42.8296 3.0813 40.4092 3.0813H7.73465C5.31431 3.0813 3.29736 5.09824 3.29736 7.51858V30.9152C3.29736 33.3355 5.31431 35.3525 7.73465 35.3525H40.4092C42.8296 35.3525 44.8465 33.3355 44.8465 30.9152V28.4948H32.3414C30.5262 28.4948 29.1143 26.8813 29.1143 25.066V18.8135C29.1143 16.9982 30.5262 15.5864 32.3414 15.5864H44.8465ZM47.4685 18.4101H32.3414C32.1397 18.4101 31.7363 18.6118 31.7363 18.8135V25.066C31.7363 25.4694 32.1397 25.6711 32.3414 25.6711H47.4685V18.4101Z" fill="#868E96"/>
<path fill-rule="evenodd" clip-rule="evenodd" d="M35.7704 19.822C36.7789 19.822 37.7873 20.8305 37.7873 22.0407C37.7873 23.0491 36.7789 24.0576 35.7704 24.0576C34.5602 24.0576 33.5518 23.0491 33.5518 22.0407C33.5518 20.8305 34.5602 19.822 35.7704 19.822Z" fill="white"/>
</svg>
